<?xml version="1.0" encoding="utf-8"?>
<!-- Generator: Adobe Illustrator 27.9.0, SVG Export Plug-In . SVG Version: 6.00 Build 0)  -->
<svg version="1.1" id="Layer_1" xmlns="http://www.w3.org/2000/svg" xmlns:xlink="http://www.w3.org/1999/xlink" x="0px" y="0px"
	 viewBox="0 0 235 152.3" style="enable-background:new 0 0 235 152.3;" xml:space="preserve">
<style type="text/css">
	.st0{fill:#FFFFFF;}
	.st1{fill:#222E83;}
	.st2{fill:#0D8C44;}
	.st3{fill:url(#Path_102316_00000183250779685858292900000001032981851039354264_);}
	.st4{fill:url(#Ellipse_1804_00000092434083005403311700000011626934490272172449_);}
	.st5{clip-path:url(#SVGID_00000032646701915488046170000016033480061513517473_);}
	.st6{fill:#0E4E97;}
</style>
<g id="india_final-01">
	<g id="Group_76491">
		<path id="Path_102298" class="st0" d="M5.7,129.2h4.7v15.1H5.7V129.2z"/>
		<path id="Path_102299" class="st0" d="M15.4,129.2h4.4l5.7,8.4v-8.4h4.4v15.1h-4.4l-5.7-8.3v8.3h-4.4
			C15.4,144.3,15.4,129.2,15.4,129.2z"/>
		<path id="Path_102300" class="st0" d="M34.7,129.2h6.9c1.1,0,2.3,0.2,3.3,0.6c0.8,0.4,1.5,0.9,2.1,1.6c0.6,0.7,1,1.5,1.2,2.4
			c0.3,1,0.4,1.9,0.4,2.9c0.1,1.3-0.1,2.6-0.6,3.8c-0.3,0.8-0.9,1.6-1.5,2.2c-0.6,0.6-1.3,1-2.1,1.2c-0.9,0.3-1.8,0.4-2.8,0.4h-6.9
			L34.7,129.2L34.7,129.2L34.7,129.2z M39.4,132.6v8.3h1.1c0.7,0,1.4-0.1,2.1-0.3c0.4-0.3,0.8-0.7,1-1.1c0.3-0.8,0.4-1.7,0.3-2.6
			c0-1.6-0.3-2.7-0.8-3.3c-0.7-0.7-1.6-1-2.6-0.9L39.4,132.6L39.4,132.6L39.4,132.6z"/>
		<path id="Path_102301" class="st0" d="M53,129.2h4.7v15.1H53C53,144.3,53,129.2,53,129.2z"/>
		<path id="Path_102302" class="st0" d="M72,141.8h-5.3l-0.7,2.5h-4.8l5.7-15.1H72l5.7,15.1h-4.9L72,141.8L72,141.8L72,141.8z
			 M71,138.5l-1.7-5.4l-1.6,5.4C67.7,138.5,71,138.5,71,138.5z"/>
		<path id="Path_102303" class="st0" d="M78.6,128.9h4.5v3.5c0.1,1.1-0.2,2.1-0.8,3c-0.7,0.9-1.6,1.5-2.7,1.9l-1-1.8
			c0.6-0.2,1.2-0.6,1.6-1.1c0.3-0.4,0.5-0.8,0.5-1.3h-2.1L78.6,128.9L78.6,128.9L78.6,128.9z"/>
		<path id="Path_102304" class="st0" d="M86.1,139.3l4.4-0.3c0,0.6,0.3,1.2,0.6,1.6c0.5,0.6,1.3,1,2.1,0.9c0.6,0,1.1-0.1,1.5-0.5
			c0.3-0.3,0.5-0.7,0.5-1.1c0-0.4-0.2-0.8-0.5-1.1c-0.7-0.5-1.5-0.8-2.4-0.9c-2-0.5-3.5-1.1-4.4-1.8c-0.9-0.7-1.3-1.8-1.3-2.9
			c0-0.8,0.2-1.6,0.7-2.2c0.5-0.7,1.2-1.3,2-1.6c1.2-0.4,2.5-0.7,3.7-0.6c1.9,0,3.4,0.4,4.4,1.1c1.1,0.8,1.7,2.1,1.8,3.4l-4.4,0.3
			c-0.1-1.1-1-2-2.2-2c0,0-0.1,0-0.1,0c-0.4,0-0.9,0.1-1.2,0.3c-0.3,0.2-0.4,0.5-0.4,0.8c0,0.3,0.1,0.5,0.3,0.7
			c0.5,0.3,1,0.5,1.6,0.6c1.5,0.3,3,0.7,4.4,1.3c0.8,0.4,1.5,1,1.9,1.7c0.4,0.7,0.6,1.5,0.6,2.2c0,1-0.3,1.9-0.8,2.7
			c-0.5,0.8-1.3,1.5-2.3,1.9c-1.2,0.5-2.4,0.7-3.6,0.6c-2.6,0-4.4-0.5-5.3-1.5C86.8,142,86.2,140.7,86.1,139.3L86.1,139.3
			L86.1,139.3z"/>
		<path id="Path_102305" class="st0" d="M112.7,129.2h11.6v3.3h-6.9v2.6h5.9v3.1h-5.9v6.2h-4.7L112.7,129.2L112.7,129.2L112.7,129.2
			z"/>
		<path id="Path_102306" class="st0" d="M135.7,141.8h-5.3l-0.7,2.5h-4.8l5.7-15.1h5.1l5.7,15.1h-4.9L135.7,141.8L135.7,141.8
			L135.7,141.8z M134.8,138.5l-1.7-5.4l-1.6,5.4H134.8z"/>
		<path id="Path_102307" class="st0" d="M144.6,129.2h4.4l5.7,8.4v-8.4h4.4v15.1h-4.4L149,136v8.3h-4.4L144.6,129.2L144.6,129.2z"/>
		<path id="Path_102308" class="st0" d="M162.8,129.2H177v3.7h-4.8v11.4h-4.7v-11.4h-4.8L162.8,129.2L162.8,129.2z"/>
		<path id="Path_102309" class="st0" d="M188.6,141.8h-5.3l-0.7,2.5h-4.8l5.7-15.1h5.1l5.7,15.1h-4.9L188.6,141.8L188.6,141.8
			L188.6,141.8z M187.7,138.5l-1.7-5.4l-1.6,5.4H187.7z"/>
		<path id="Path_102310" class="st0" d="M196.7,139.3l4.4-0.3c0,0.6,0.3,1.2,0.6,1.6c0.5,0.6,1.3,1,2.1,0.9c0.6,0,1.1-0.1,1.5-0.5
			c0.3-0.3,0.5-0.7,0.5-1.1c0-0.4-0.2-0.8-0.5-1.1c-0.7-0.5-1.5-0.8-2.4-0.9c-2-0.5-3.5-1.1-4.4-1.8c-0.9-0.7-1.3-1.8-1.3-2.9
			c0-0.8,0.2-1.6,0.7-2.2c0.5-0.7,1.2-1.3,2-1.6c1.2-0.4,2.5-0.7,3.7-0.6c1.5-0.1,3.1,0.3,4.4,1.1c1.1,0.8,1.7,2.1,1.8,3.4l-4.4,0.3
			c-0.1-1.1-1-2-2.2-2c0,0-0.1,0-0.1,0c-0.4,0-0.9,0.1-1.2,0.3c-0.3,0.2-0.4,0.5-0.4,0.8c0,0.3,0.1,0.5,0.3,0.7
			c0.5,0.3,1,0.5,1.6,0.6c1.5,0.3,3,0.7,4.4,1.3c0.8,0.4,1.5,1,1.9,1.7c0.4,0.7,0.6,1.5,0.6,2.2c0,1-0.3,1.9-0.8,2.7
			c-0.5,0.8-1.3,1.5-2.3,1.9c-1.2,0.5-2.4,0.7-3.6,0.6c-2.6,0-4.4-0.5-5.3-1.5C197.4,142,196.8,140.7,196.7,139.3L196.7,139.3
			L196.7,139.3z"/>
		<path id="Path_102311" class="st0" d="M212.9,129.2h5.2l3,5.1l3.1-5.1h5.2l-5.9,8.8v6.3h-4.7V138L212.9,129.2L212.9,129.2z"/>
	</g>
	<g id="Group_76498">
		<path id="Path_102312" class="st0" d="M139.8,111.7v-36h32.2l11.3-18h-43.5V39.5h54.9l11.3-18l-102.1,0H65.7v90.3H104"/>
		<g id="Group_76492">
			<path id="Path_102313" class="st1" d="M118.8,49.1l-1.3-0.5l-0.1-0.2c-0.3,0.4-0.6,0.8-0.9,1.1c-0.2,0.2-0.4,0.2-0.6,0.2
				c-0.6-0.1-1.2-0.3-1.8-0.4c-0.1-0.3-0.2-0.7-0.3-1l-0.1,0v0.6c-0.7,0.1-1.3-0.2-1.8-0.6c-0.5-0.4-0.4-1,0.2-1.1
				c0.8-0.1,1.6-0.1,2.4-0.1c0.4,0,0.7,0.1,1.1,0c-0.5-0.2-1.1-0.3-1.6-0.5c0.9-2.4,3.6-3.7,6-2.8c0.1,0,0.1,0.1,0.2,0.1
				c2.5,1,3.7,3,3.3,5.8c-0.1,0.7-0.3,1.5-0.4,2.4c-0.4-0.6-0.7-1.1-1.1-1.5l-0.2,0.1c0.5,0.7,0.8,1.6,0.7,2.5
				c0,0.3-0.2,0.6-0.4,0.6c-1.5,0.6-2.8,1.4-3.9,2.5c-0.2,0.2-0.3,0.4-0.5,0.6c1.1-0.7,2.1-1.4,3.2-2.1c0.5-0.3,0.9-0.5,1.4-0.7
				c0.4-0.2,0.6-0.1,0.7,0.4c0.1,1.1,0.1,1.2,1.2,1.4c1.4,0.3,2.4,1.5,2.5,2.9c0.1,0.9,0.2,1.9,0.3,2.8c0.2,2-0.8,3-2.8,2.6
				c-0.1,0-0.2,0-0.3-0.1c0.6,0.6,1.2,0.6,2.7,0.3c-0.2,1.5-0.5,1.7-1.9,1.9h1.5c0,0.1,0,0.2,0,0.3c0.1,0.6,0.1,1.2-0.1,1.8
				c-0.5-0.6-1-1.2-1.5-1.7l-0.3,0.2c1.4,1,2.1,2.8,1.7,4.5c-0.9-1.8-1.8-3.5-2.7-5.2l-0.2,0.1c0.1,0.1,0.1,0.3,0.2,0.4
				c0.7,1.7,1.5,3.4,2.2,5.2c0.3,1,0.3,2.2,0,3.2c-0.5-2-1.3-3.8-2.5-5.5c0.5,1.2,1,2.3,1.4,3.5s0.5,2.4,0.8,3.6l-0.2,0.1
				c-0.2-0.2-0.5-0.3-0.7-0.5c-1.6-1.1-3.4-1.8-5.3-2c-1.4-0.2-2.8,0.4-3.7,1.5c0.1,0,0.1,0.1,0.1,0c1.5-1.3,3.1-1.4,4.9-0.9
				c1.6,0.5,3.1,1.3,4.4,2.4c0.2,0.2,0.4,0.5,0.4,0.8c0,1.6-0.2,3.1-0.4,4.7c-0.3,1.4-1,2.6-2.1,3.4c-0.4,0.3-0.7,0.8-0.7,1.4
				c-0.1,1.6-0.3,3.3-0.5,4.9c-0.1,0.6-0.3,1.2-0.5,1.8c-0.9-1-1.7-1.9-2.5-2.9c0,0-0.1,0-0.1,0.1c0.8,1.3,1.7,2.5,2.5,3.8
				c-0.1,0-0.1,0.1-0.2,0.2c-1.5-0.8-2.9-2-3.9-3.4c0.4,1,1,1.9,1.9,2.6c0.8,0.7,1.7,1.3,2.5,2c-0.3,0.5-0.6,1-0.9,1.5l0.1,0.1
				c0.3-0.4,0.5-0.7,0.8-1.1c0.1-0.1,0.4-0.3,0.5-0.2c1.6,0.6,3.4,1,4.9,2l1.6,1.1c0,0,0.1-0.1,0.1-0.1l-2.7-2.1
				c1.8,0.5,3.3,1.6,4.9,2.4c-0.1,0.3-0.1,0.5-0.2,0.8c0,0,0,0,0.1,0c0.3-0.4,0.6-0.8,0.9-1.3c0.2-0.5,0.8-0.7,1.3-0.5
				c0.1,0,0.3,0,0.4,0.1c0.5,0.1,1,0.1,0.7,0.9c1.3,0,1.4,0.1,1.6,1.4c0,0.2,0.1,0.5,0.2,0.7c0-0.2,0.1-0.5,0-0.8
				c0-0.5,0.2-0.6,0.6-0.5c0.5,0.1,0.9,0.2,1.4,0.3c0.6,0.1,1.3,0.3,1.9,0.4c0.7,0.2,0.9,0.4,0.7,1.1c-0.4,1.3-1,2.5-1.8,3.5
				c-0.5,0.6-0.8,1.2-1,1.9c-0.4,1.7-1.1,3.2-2.2,3.2c-1,0-2.1,0-3.2,0c-0.2,0-0.6-0.7-0.6-0.9c0-0.3,0.1-0.6,0.3-0.8
				c1.1-1,1.1-1,1.4-2.4c0.6-0.1,1.3-0.1,1.9-0.2c1-0.2,1.9-0.7,2-1.8c0.1-1.1-0.5-1.8-1.4-2.3c-0.6-0.3-1.3-0.6-2-0.8
				c-0.6-0.1-0.6-0.4-0.5-0.8c0.1-0.2,0.1-0.5,0.1-0.7c-0.2,0.4-0.4,0.8-0.7,1.4c-3.3-1-6.7-1.9-10.1-2.9c0.1-0.5,0.2-0.9,0.3-1.4
				c0,0-0.1,0-0.1,0c0,0-0.1,0.1-0.1,0.2c-0.4,1.2-0.4,1.2-1.7,1c-0.9-0.1-1.8-0.3-2.7-0.4c-1.3-0.2-2.4-1.2-2.7-2.5
				c-0.2-0.7-0.3-1.5-0.3-2.2c0-0.2,0-0.3-0.1-0.4c-0.3,1.5-0.1,3,0.6,4.3c-1.2-0.1-2.3-0.2-3.5-0.2c-1.2,0-2.3,0.6-3.1,1.5
				c0.3-0.2,0.5-0.4,0.8-0.5c1.5-0.7,3.1-0.8,4.7-0.5c1.5,0.3,3,0.9,4.5,1.1c3.7,0.5,7.2,1.8,10.7,2.8c1.2,0.4,2.5,0.5,3.7,0.9
				c0.8,0.2,1.6,0.6,2.4,1.1c1.1,0.7,0.9,2-0.4,2.3c-0.8,0.2-1.7,0.3-2.6,0.3c-4.9-0.4-9.8-1.1-14.7-1.9c-0.4-0.1-0.8-0.1-0.8-0.7
				c0-0.7,0.1-0.7,0.8-0.7c3.7,0.3,7.3,0.5,11,0.8c1.8,0.1,3.6,0.3,5.3,0.5c0.2,0,0.5,0,0.7,0c-5.7-1.3-11.7-1-17.5-1.8
				c-0.1-1,0-1.1,0.9-1c1.4,0.1,2.7,0.1,4.1,0.2c2.3,0.1,4.5,0.3,6.8,0.5c0.1,0,0.2,0,0.3,0c-1.9-0.5-3.9-0.8-5.9-0.8l-6-0.3
				l0.2-0.9l-0.1,0c-0.1,0.1-0.1,0.2-0.2,0.3c-0.3,1-0.6,2-0.9,3c-0.1,0.2-0.3,0.3-0.5,0.5c-0.1-0.2-0.3-0.4-0.3-0.6
				c0.2-1,0.5-2.1,0.7-3.1c0-0.2,0.1-0.3,0.1-0.5c-0.1,0-0.1,0-0.2,0c-0.4,1-0.7,2-1.1,3c-0.1,0.2,0,0.4-0.2,0.5
				c-0.2,0.1-0.3,0.3-0.5,0.3c-0.1-0.2-0.3-0.4-0.3-0.5c0.1-0.6,0.3-1.3,0.5-1.9c0.2-0.5,0.4-1,0.6-1.5l-0.2-0.1
				c-0.4,1-0.9,2-1.3,2.9c0,0.1,0,0.3-0.1,0.3c-0.2,0.2-0.3,0.3-0.5,0.5c0-0.2-0.2-0.5-0.1-0.7c0.4-1,0.8-1.9,1.2-2.9
				c0.1-0.2,0.1-0.3,0.1-0.5c-0.1,0.1-0.1,0.2-0.2,0.2c-0.7,1-0.7,1-1.8,0.6c-0.7-0.2-1.3-0.5-2-0.8l-0.1,0.2c1,0.5,2,0.9,3.1,1.4
				c-0.1,0.3-0.3,0.6-0.5,1c-1.3-0.5-2.5-1-3.7-1.5c0,0,0,0.1-0.1,0.1c1.2,0.6,2.4,1.2,3.6,1.7c-0.1,0.7-0.2,0.8-0.9,0.6
				c-1.3-0.3-2.6-0.9-3.7-1.6c-0.6-0.3-0.8-1-0.5-1.6c0,0,0,0,0-0.1c0.6-1.5,2.1-2.5,3.7-2.5c0.8-0.1,1.6,0,2.4,0
				c-0.4-1.3-0.9-2.6-1.4-4c2.7-1.4,5.2-3.2,7.4-5.4c-0.3,0.2-0.6,0.5-0.9,0.7c-2.6,1.9-5.3,3.5-8.2,4.8c-0.6,0.3-1.2,0.7-1.8,1
				c-0.2,0.1-0.3,0.1-0.5,0.1c-0.5-0.2-0.9-0.5-1.3-0.7c0.6-0.4,1.3-0.8,2-1.2c0-0.1-0.1-0.1-0.1-0.2c-1,0.6-2,1.3-3.2,0.9
				c0.9,0.5,1.7,1.1,2.5,1.5c-1.1,3.8-3.1,7.2-5.9,9.9l-2-0.8l0,0.1c0.5,0.3,1,0.6,1.5,0.8c0.3,0.2,0.3,0.3,0.2,0.6
				c-0.2,0.6-0.2,1.2-0.2,1.7c0,0.4-0.1,0.7-0.5,0.9c-0.6,0.2-1.3,0.5-1.9,0.7c-0.1,0-0.2,0.1-0.4,0.1c0,0.1,0,0.1,0,0.2
				c0.9-0.2,1.7-0.4,2.7-0.6c0.2,0.7,0.5,1.4,0.7,2.2c0.1,0.3-0.1,0.7-0.4,0.8c-0.1,0-0.1,0-0.2,0c-1.4,0-2.9,0-4.3,0
				c-0.5,0-1.1,0-1.7,0c-2,0-3.6,0-5.6,0c-0.3,0-0.7-0.5-0.8-0.7c0-0.3,0.3-0.6,0.4-1c0,0,0.1-0.1,0.2-0.1c1.5-0.4,2.9-1.1,4.1-2.1
				c0.1,0.3,0.2,0.6,0.3,0.8c0.3,1,1.3,1.6,2.3,1.3c0.4-0.1,0.7-0.3,0.9-0.6c0.6-0.6,1.1-1.4,1.3-2.3c0-0.2,0.1-0.3,0.2-0.5
				c0.6,0.2,1.2,0.3,1.8,0.5c0,0,0-0.1,0-0.1c-0.6-0.2-1.1-0.5-1.7-0.7c0.1-1.3,0.4-2.7,1-3.9c1-1.8,2.1-3.6,3.1-5.4
				c0.6-1.1,0.6-1.1,1.9-0.8c0.5,0.1,1,0.3,1.5,0.4c0,0,0-0.1,0.1-0.2c-0.9-0.4-1.7-0.7-2.7-1.1c0.6-1.6,1.1-3.3,1.8-4.9
				c0.6-1.4,1.4-2.7,1.5-4.3c0-0.6-0.1-1.3-0.3-1.9c0.5,2.2-0.7,3.9-1.5,5.8c-0.5,1.2-1,2.4-1.4,3.6c-0.7,2-1.7,3.9-2.9,5.6
				c-1,1.7-2.2,3.5-2.6,5.5c-0.2,1-0.4,2.1-0.8,3.1c-0.2,0.5-0.6,1-1,1.4c-0.4,0.5-1.1,0.5-1.6,0.1c-0.2-0.2-0.3-0.4-0.4-0.7
				c-0.2-1-0.2-1.9,0-2.9c0.8-4.9,2.3-9.7,4.4-14.2c0.3-0.7,0.5-0.7,1.3-0.4c-2.3,5.3-3.9,10.9-4.2,16.7c0.1-0.8,0.3-1.6,0.4-2.5
				c0.8-4.7,2.2-9.3,4-13.7c0.2-0.5,0.2-0.5,0.8-0.3c-1.2,2.7-2,5.6-2.4,8.5c0.9-2.8,1.8-5.6,2.8-8.4c0.5,0.1,0.8,0.2,1.2,0.3l0-0.1
				c-0.8-0.3-1.6-0.7-2.4-1c-0.2,0-0.3-0.1-0.5-0.2c-0.2-0.1-0.2-0.3-0.2-0.5c0.1-0.1,0.2-0.2,0.3-0.2c0.2,0,0.4,0,0.6,0.1
				c0.8,0.3,1.7,0.6,2.5,0.9c-0.7-0.4-1.3-0.7-2-1.1c-0.2-0.1-0.4-0.2-0.5-0.3c-0.1-0.1-0.3-0.4-0.2-0.5c0.1-0.2,0.3-0.3,0.5-0.2
				c0.4,0.1,0.8,0.3,1.2,0.5c0.6,0.3,1.2,0.6,1.8,0.8c-0.7-0.5-1.4-0.9-2.1-1.4c-0.3-0.2-0.9-0.3-0.6-0.8c0.3-0.4,0.7,0,1,0.2
				c0.7,0.4,1.4,0.8,2.1,1.1c-0.3-0.2-0.6-0.5-0.9-0.7c0.7-1.1,1.4-2.3,2-3.4c0,0-0.1-0.1-0.1-0.1c-0.7,1-1.5,2.1-2.3,3.2
				c-0.1-0.1-0.3-0.2-0.6-0.4c0.8-1.2,1.5-2.4,2.3-3.5c0,0-0.1,0-0.1-0.1c-0.8,1.1-1.7,2.2-2.5,3.3c-0.5-0.2-0.6-0.5-0.3-1
				c0.7-1,1.5-2,2.3-3c0.8-0.9,1.8-0.7,2.5,0.2c0.3,0.3,0.5,0.7,0.8,1.1c2.5-3.2,5.1-6.3,8.8-8.1c-2.1,0.8-4,1.9-5.8,3.3
				c0.1-1,0.1-1.8,0.2-2.5c0.5,0.2,1,0.2,1.5,0.2c0.5-0.2,0.9-0.4,1.3-0.7c0,0,0-0.1-0.1-0.1c-0.3,0.2-0.7,0.3-1,0.5
				c-0.5,0.2-1,0.1-1.3-0.4c0-0.1-0.1-0.2-0.1-0.3c-0.1-0.7-0.1-1.3,0-2c0.4,0.2,0.8,0.5,1.2,0.5c0.5,0,0.9-0.2,1.3-0.5
				c0.9-0.8,1.9-1.4,3-1.8c2-0.9,3.6-2.5,4.4-4.4c-1.3,2.1-3.3,3.7-5.7,4.5c1.1-1.5,1.8-3.2,2.1-5.1c-0.2,0.6-0.5,1.3-0.7,1.9
				c-0.7,1.7-1.7,3.1-3.1,4.3c-0.4,0.4-0.9,0.8-1.5,0.6s-0.6-0.9-0.6-1.5c0-1.5,0.1-3,0.2-4.5c0.1-1.6,0.2-3.1,0.3-4.7
				c0-0.4,0-0.7,0-1.1h-0.2c0,0.3-0.1,0.5-0.2,0.9c-0.7-0.2-1.4-0.3-2.1-0.5c0.3-0.4,0.6-0.7,0.9-1c-1.6,1.2-2.9,0.8-3.4-1.2
				c-0.1-0.5-0.2-0.9-0.3-1.6c0.6,0.3,1.1,0.5,1.6,0.8c0.9,0.5,1.8,1,2.7,1.5c1.3,0.7,2.8,1,4.3,0.9c0.9-0.1,1.9-0.1,2.8-0.2
				c-0.1,0-0.2-0.1-0.3-0.1c-0.7,0-1.4-0.1-2,0c-1.9,0.1-3.8-0.4-5.4-1.4c-1.7-1.1-3.5-2.1-5.4-2.8c-0.3-0.2-0.7-0.4-0.9-0.7
				c-0.4-0.3-0.8-0.6-1.3-0.9c0.4,0,0.6-0.1,0.9,0.2c0.1,0.1,0.1,0.8,0.1,2.1c-0.2,0-1.5,0-1.7,0c0,0,0-0.7,0-1.2c0-0.2,0-0.5,0-0.7
				c0-0.9,0-0.9-0.9-1c-0.2,0-0.4,0-0.6-0.1c-0.2-0.1-0.4-0.2-0.4-0.5s0.4-0.4,0.6-0.4c1,0,2,0.2,3,0.4c0.1,0,0.3,0.1,0.4,0.1
				c-0.9-0.5-1.9-0.7-2.9-0.7c-0.3,0-0.6,0-0.8-0.1c-0.2-0.1-0.5-0.2-0.5-0.4c0-0.2,0.4-0.4,0.6-0.4c1.1,0,2.2,0.2,3.3,0.4
				c0.1,0,0.3,0.1,0.4,0c-1.1-0.5-2.3-0.8-3.5-0.7c-0.3,0-0.7-0.1-0.7-0.4c0-0.3,0.5-0.4,0.7-0.4c1.2,0,2.3,0.1,3.4,0.2
				c-0.7-0.4-1.6-0.6-2.4-0.6c-0.5,0-1.1,0.2-1.6,0.1c-0.6-0.1-0.7-0.2-0.8-0.4c-0.1-0.3-0.1-0.7,0-1.1c0.6-1,2.9-1.3,3.6-0.4
				c0-1-1.8-1.1-3.8-0.2c-0.1-0.7,0.3-1.1,1.3-1.4c1.2-0.4,2.4,0,2.8,0.9c0.1-0.4-0.1-0.8-0.5-1c-1-0.5-2.1-0.5-3.1-0.1
				c-0.2,0.1-0.3,0.2-0.5,0.2c-0.2-0.7-0.1-1.1,0.5-1.2c0.8-0.1,1.5-0.2,2.3-0.2c0.2,0,0.4,0.1,0.5,0.2c0.4,0.7,1.1,0.6,1.7,0.8
				c-0.3-0.2-0.5-0.3-0.8-0.5c-0.4-0.2-0.6-0.7-0.5-1.1c0.2-0.4,0.7-0.6,1.1-0.4c0,0,0,0,0,0c0.7,0.3,1.2,0.9,1.3,1.7
				c0.1,0.3,0.1,0.7,0,1c-0.2,0.6-0.1,1.3,0.2,1.9c0.1,0.1,0,0.3,0,0.5c-1.2-0.7-2.6-1.1-4-1.1c-0.3,0-0.6,0-0.8,0.1
				c-0.3,0.1-0.5,0.4-0.4,0.7c0,0.1,0,0.1,0.1,0.2c0.1-0.7,0.5-0.7,1-0.7c2.1,0,4,0.8,5.4,2.3c0.4,0.3,0.5,0.8,0.4,1.2
				c0,0.3,0.1,0.5,0.4,0.7c1.5,1,3.2,1.6,4.9,1.9c0.6,0.1,1.1,0.2,1.6,0.4c0.7,0.2,1.3,0.3,2,0.4c1.3,0.1,2.3,1,2.7,2.3
				c0.3,0.8,0.5,1.7,0.6,2.5c0,0.3,0.1,0.6,0.2,0.9c0-2.2-0.3-4.3-2.1-5.8c0.7-0.2,1.7,0.2,3.1,1.2c-0.3-0.7-1.5-1.4-2.7-1.6
				c0.9-0.7,2.4-0.2,4,1.3c-0.3-0.8-1.1-1.3-3.1-1.9c0.9-0.3,1.6-0.5,2.3-0.7c0,0,0-0.1,0-0.1c-0.6,0.1-1.2,0.2-1.8,0.4
				c-0.7,0.3-1.4,0.6-2,0.9c-0.6,0.3-1.2,0.4-1.9,0.3c-1.7-0.4-3.3-0.9-5-1.4c-0.7-0.3-1.3-0.6-2-0.9c0-0.1,0.1-0.1,0.1-0.2
				c0.5,0.2,0.9,0.4,1.3,0.6c0.4,0.3,0.9,0.4,1.4,0.2c1-0.3,2.1-0.3,3.1,0c0,0.2,0,0.4,0,0.6c0,0,0.1,0,0.1,0
				c0.1-0.2,0.2-0.4,0.3-0.6c0.3-0.5,0.5-0.5,0.8,0c0.2,0.2,0.3,0.5,0.4,0.8c0.1-0.9-0.6-1.8-1.5-2c-0.9-0.3-1.9-0.5-2.8-0.6
				c-0.3,0-0.5-0.2-0.6-0.4c-0.6-1.1-0.7-2.5-0.4-3.7c0.1-0.5,0.5-0.8,1-0.8c1.8,0,3.6,0.3,5.4,1c0.3,0.1,0.5,0.2,0.8,0.2
				c-0.6-0.3-1.2-0.5-1.7-0.8c0,0,0-0.1,0-0.2c0.2,0,0.4-0.2,0.6-0.1c0.6,0.2,1.2,0.4,1.8,0.6c-0.6-0.3-1.3-0.6-1.9-1
				c0.2-0.5,0.5-0.6,0.9-0.3c0.4,0.2,0.9,0.4,1.4,0.5C119.1,49.3,118.9,49.2,118.8,49.1c0.6,0.2,1.2,0.5,1.9,0.7
				c-0.3,0.5-0.6,0.6-1,0.3c-0.6-0.3-1.2-0.5-1.8-0.8c0,0,0,0.1,0,0.1c0.7,0.3,1.3,0.6,2,1c-0.5,0.7-1.4,0.8-2.1,0.4
				c-1-0.4-2.1-0.8-3.2-1.1c0,0.1-0.1,0.2-0.1,0.2c1,0,1.9,0.6,2.4,1.5c0,0,0.1-0.1,0.1-0.1c-0.2-0.2-0.3-0.5-0.5-0.7
				c0,0,0,0,0.1-0.1c0.6,0.3,1.1,0.5,1.7,0.8c-0.6,0.5-0.8-0.1-1.3-0.3c0.2,0.3,0.4,0.5,0.6,0.8c-1.4,0.4-2.8,0.8-4.1,1.1
				c-0.1-0.6-0.1-1.1-0.1-1.6h-1.6c0.2,0.5,0.3,0.9,0.4,1.3c0.1,0.5,0.7,0.8,1.2,0.7c0,0,0.1,0,0.1,0c0.4-0.1,0.7-0.2,1.1-0.2
				c2.2-0.5,4.3-1.5,6-3c0.4-0.4,0.7-0.8,1.1-1.2l-0.2-0.2c-0.1,0.2-0.2,0.3-0.3,0.5c-1.3-0.9-2.7-1.5-4.2-1.7
				c-0.3,0-0.5-0.2-0.4-0.6c0.1-0.3,0.3-0.5,0.6-0.4c0.8,0.3,1.6,0.5,2.4,0.7c0.4,0.2,0.8,0.4,1.3,0.6c-1.1-0.9-2.5-1.4-3.9-1.6
				c-0.3,0-0.5,0.1-0.6,0.4c-0.1,0.3,0,0.6,0.1,0.9c0.1,0.2,0.4,0.2,0.6,0.3c-0.2,0.2-0.3,0.4-0.5,0.5s-0.3,0.4-0.4,0.5l0.1,0.2
				c0.8-1.6,1.9-1.3,3.1-0.7c0,0,0.1,0,0.1,0c0.5,0.3,0.9,0.5,1.4,0.8c0,0-0.1,0.1-0.1,0.2c-0.7-0.3-1.5-0.6-2.3-0.9
				C118.7,48.9,118.7,49,118.8,49.1L118.8,49.1L118.8,49.1z"/>
			<path id="Path_102314" class="st1" d="M102.8,47.6c-1.1-0.4-2.3-0.5-3.4,0c0-0.4,0.2-0.8,0.6-0.9c0.9-0.5,2-0.3,2.6,0.5
				c-0.4-0.7-1.1-1.2-1.9-1.3c-0.4-0.1-0.5-0.4-0.5-0.8c-0.3-5.1-0.6-10.2-0.9-15.3c-0.1-2-0.3-4.1-0.4-6.1
				c-0.1-1.5,0.2-2.1,1.8-2.2c0.5,0,1,0,1.6,0c0.9,0,1.2,0.5,1.2,1.4c0.1,1.9,0.2,3.9,0.3,5.8c0.3,5.3,0.6,10.5,0.8,15.8
				c0,0.2,0,0.5,0,0.7c0,0.2-0.2,0.3-0.3,0.4c-0.3,0.1-0.7,0.3-0.9,0.6c-0.2,0.2-0.3,0.5-0.4,0.7C103,47.1,102.9,47.3,102.8,47.6
				L102.8,47.6L102.8,47.6z"/>
		</g>
		<path id="Path_102315" class="st2" d="M126.6,118.6c-42.1,0-76.3-24.9-76.3-55.5c0-19.5,13.8-36.6,34.6-46.5
			c-23.3,9.5-39.1,27.6-39.1,48.5c0,30.7,34.2,55.5,76.3,55.5c15.4,0,29.7-3.3,41.7-9C152,116.3,139.3,118.7,126.6,118.6
			L126.6,118.6L126.6,118.6z"/>
		<g id="Group_76497">
			<g id="Group_76493">
				
					<linearGradient id="Path_102316_00000062880378024197034680000000499089599947011513_" gradientUnits="userSpaceOnUse" x1="-211.4296" y1="-11.15" x2="-210.9025" y2="-10.7393" gradientTransform="matrix(22.65 0 0 22.65 4864.52 262.393)">
					<stop  offset="0" style="stop-color:#FFFFFF"/>
					<stop  offset="1" style="stop-color:#FFFFFF"/>
				</linearGradient>
				<path id="Path_102316" style="fill:url(#Path_102316_00000062880378024197034680000000499089599947011513_);" d="M82.9,23.3
					c-4.3,0-7.7-3.5-7.7-7.8c0-4.3,3.5-7.7,7.8-7.7c4.3,0,7.7,3.5,7.7,7.8c0,2.1-0.8,4-2.3,5.5C86.9,22.4,85,23.3,82.9,23.3z"/>
				
					<linearGradient id="Ellipse_1804_00000148626786869071652480000016014108147471774342_" gradientUnits="userSpaceOnUse" x1="-210.4607" y1="-9.5434" x2="-209.9336" y2="-9.1326" gradientTransform="matrix(20.33 0 0 20.33 4355.6201 204.8861)">
					<stop  offset="0" style="stop-color:#8D0405"/>
					<stop  offset="1" style="stop-color:#D12027"/>
				</linearGradient>
				
					<circle id="Ellipse_1804" style="fill:url(#Ellipse_1804_00000148626786869071652480000016014108147471774342_);" cx="82.9" cy="15.5" r="7"/>
			</g>
			<g>
				<defs>
					<circle id="SVGID_1_" cx="82.9" cy="15.5" r="7"/>
				</defs>
				<clipPath id="SVGID_00000036217730257143964750000012639936986927407009_">
					<use xlink:href="#SVGID_1_"  style="overflow:visible;"/>
				</clipPath>
				<g style="clip-path:url(#SVGID_00000036217730257143964750000012639936986927407009_);">
					<g id="Group_76496">
						
							<rect id="Rectangle_5203" x="75" y="15.7" transform="matrix(0.7071 -0.7071 0.7071 0.7071 13.0709 63.0521)" class="st6" width="15.3" height="0.2"/>
						<g id="Group_76494">
							<path id="Path_102317" class="st0" d="M78.7,20.7c0,0.1,0,0.1,0,0.2l-0.4,0.4c-0.1,0.1-0.1,0.1-0.2,0c-0.1-0.1-0.1-0.1,0-0.2
								l0.4-0.4C78.5,20.7,78.6,20.7,78.7,20.7z"/>
							<path id="Path_102318" class="st0" d="M80.2,19.2c0,0.1,0,0.1,0,0.2l-0.4,0.4c-0.1,0.1-0.1,0.1-0.2,0c-0.1-0.1-0.1-0.1,0-0.2
								l0,0l0.4-0.4C80.1,19.1,80.2,19.1,80.2,19.2z"/>
							<path id="Path_102319" class="st0" d="M79.4,20c0,0.1,0,0.1,0,0.2L79,20.5c-0.1,0.1-0.1,0.1-0.2,0c-0.1-0.1-0.1-0.1,0-0.2
								l0.4-0.4C79.3,19.9,79.4,19.9,79.4,20z"/>
							<path id="Path_102320" class="st0" d="M81,18.4c0,0.1,0,0.1,0,0.2L80.6,19c-0.1,0.1-0.1,0.1-0.2,0c-0.1-0.1-0.1-0.1,0-0.2
								l0.4-0.4C80.8,18.4,80.9,18.4,81,18.4z"/>
							<path id="Path_102321" class="st0" d="M82.5,16.9c0,0.1,0,0.1,0,0.2l-0.4,0.4c-0.1,0.1-0.1,0.1-0.2,0c-0.1-0.1-0.1-0.1,0-0.2
								l0,0l0.4-0.4C82.4,16.8,82.5,16.8,82.5,16.9z"/>
							<path id="Path_102322" class="st0" d="M81.8,17.7c0,0.1,0,0.1,0,0.2l-0.4,0.4c-0.1,0.1-0.1,0.1-0.2,0c-0.1-0.1-0.1-0.1,0-0.2
								l0,0l0.4-0.4C81.6,17.6,81.7,17.6,81.8,17.7z"/>
							<path id="Path_102323" class="st0" d="M83.3,16.1c0,0.1,0,0.1,0,0.2l-0.4,0.4c-0.1,0.1-0.1,0.1-0.2,0c-0.1-0.1-0.1-0.1,0-0.2
								l0.4-0.4C83.2,16.1,83.2,16.1,83.3,16.1z"/>
							<path id="Path_102324" class="st0" d="M84.8,14.6c0,0.1,0,0.1,0,0.2l-0.4,0.4c-0.1,0.1-0.1,0.1-0.2,0c-0.1-0.1-0.1-0.1,0-0.2
								l0.4-0.4C84.7,14.5,84.8,14.5,84.8,14.6z"/>
							<path id="Path_102325" class="st0" d="M84.1,15.3c0,0.1,0,0.1,0,0.2l-0.4,0.4c-0.1,0.1-0.1,0.1-0.2,0c-0.1-0.1-0.1-0.1,0-0.2
								l0.4-0.4C83.9,15.3,84,15.3,84.1,15.3z"/>
							<path id="Path_102326" class="st0" d="M85.6,13.8c0,0.1,0,0.1,0,0.2l-0.4,0.4c-0.1,0.1-0.1,0.1-0.2,0c-0.1-0.1-0.1-0.1,0-0.2
								l0,0l0.4-0.4C85.5,13.7,85.6,13.7,85.6,13.8z"/>
							<path id="Path_102327" class="st0" d="M87.2,12.2c0,0.1,0,0.1,0,0.2l-0.4,0.4c-0.1,0.1-0.1,0.1-0.2,0c-0.1-0.1-0.1-0.1,0-0.2
								l0.4-0.4C87,12.2,87.1,12.2,87.2,12.2z"/>
							<path id="Path_102328" class="st0" d="M86.4,13c0,0.1,0,0.1,0,0.2L86,13.6c-0.1,0.1-0.1,0.1-0.2,0c-0.1-0.1-0.1-0.1,0-0.2
								l0.4-0.4C86.3,13,86.3,13,86.4,13z"/>
							<path id="Path_102329" class="st0" d="M87.9,11.5c0,0.1,0,0.1,0,0.2L87.5,12c-0.1,0.1-0.1,0.1-0.2,0c-0.1-0.1-0.1-0.1,0-0.2
								l0.4-0.4C87.8,11.4,87.9,11.4,87.9,11.5z"/>
							<path id="Path_102330" class="st0" d="M88.7,10.7c0,0.1,0,0.1,0,0.2l-0.4,0.4c-0.1,0.1-0.1,0.1-0.2,0c-0.1-0.1-0.1-0.1,0-0.2
								l0,0l0.4-0.4C88.6,10.7,88.6,10.7,88.7,10.7z"/>
						</g>
						<g id="Group_76495">
							<path id="Path_102331" class="st0" d="M77.7,19.7c0,0.1,0,0.1,0,0.2l-0.4,0.4c-0.1,0.1-0.1,0.1-0.2,0c-0.1-0.1-0.1-0.1,0-0.2
								l0.4-0.4C77.5,19.7,77.6,19.7,77.7,19.7z"/>
							<path id="Path_102332" class="st0" d="M79.2,18.2c0,0.1,0,0.1,0,0.2l-0.4,0.4c-0.1,0.1-0.1,0.1-0.2,0c-0.1-0.1-0.1-0.1,0-0.2
								l0,0l0.4-0.4C79.1,18.1,79.2,18.1,79.2,18.2z"/>
							<path id="Path_102333" class="st0" d="M78.4,19c0,0.1,0,0.1,0,0.2L78,19.5c-0.1,0.1-0.1,0.1-0.2,0c-0.1-0.1-0.1-0.1,0-0.2
								l0.4-0.4C78.3,18.9,78.4,18.9,78.4,19z"/>
							<path id="Path_102334" class="st0" d="M80,17.4c0,0.1,0,0.1,0,0.2L79.6,18c-0.1,0.1-0.1,0.1-0.2,0c-0.1-0.1-0.1-0.1,0-0.2
								l0.4-0.4C79.8,17.4,79.9,17.4,80,17.4z"/>
							<path id="Path_102335" class="st0" d="M81.5,15.9c0,0.1,0,0.1,0,0.2l-0.4,0.4c-0.1,0.1-0.1,0.1-0.2,0c-0.1-0.1-0.1-0.1,0-0.2
								l0,0l0.4-0.4C81.4,15.8,81.5,15.8,81.5,15.9z"/>
							<path id="Path_102336" class="st0" d="M80.7,16.6c0,0.1,0,0.1,0,0.2l-0.4,0.4c-0.1,0.1-0.1,0.1-0.2,0c-0.1-0.1-0.1-0.1,0-0.2
								l0,0l0.4-0.4C80.6,16.6,80.7,16.6,80.7,16.6z"/>
							<path id="Path_102337" class="st0" d="M82.3,15.1c0,0.1,0,0.1,0,0.2l-0.4,0.4c-0.1,0.1-0.1,0.1-0.2,0c-0.1-0.1-0.1-0.1,0-0.2
								l0.4-0.4C82.2,15.1,82.2,15.1,82.3,15.1z"/>
							<path id="Path_102338" class="st0" d="M83.8,13.6c0,0.1,0,0.1,0,0.2l-0.4,0.4c-0.1,0.1-0.1,0.1-0.2,0c-0.1-0.1-0.1-0.1,0-0.2
								l0.4-0.4C83.7,13.5,83.8,13.5,83.8,13.6z"/>
							<path id="Path_102339" class="st0" d="M83.1,14.3c0,0.1,0,0.1,0,0.2l-0.4,0.4c-0.1,0.1-0.1,0.1-0.2,0c-0.1-0.1-0.1-0.1,0-0.2
								l0,0l0.4-0.4C82.9,14.3,83,14.3,83.1,14.3z"/>
							<path id="Path_102340" class="st0" d="M84.6,12.8c0,0.1,0,0.1,0,0.2l-0.4,0.4c-0.1,0.1-0.1,0.1-0.2,0c-0.1-0.1-0.1-0.1,0-0.2
								l0.4-0.4C84.5,12.7,84.6,12.7,84.6,12.8z"/>
							<path id="Path_102341" class="st0" d="M86.2,11.2c0,0.1,0,0.1,0,0.2l-0.4,0.4c-0.1,0.1-0.1,0.1-0.2,0c-0.1-0.1-0.1-0.1,0-0.2
								l0,0l0.4-0.4C86,11.2,86.1,11.2,86.2,11.2z"/>
							<path id="Path_102342" class="st0" d="M85.4,12c0,0.1,0,0.1,0,0.2L85,12.6c-0.1,0.1-0.1,0.1-0.2,0c-0.1-0.1-0.1-0.1,0-0.2
								l0,0l0.4-0.4C85.3,12,85.3,12,85.4,12z"/>
							<path id="Path_102343" class="st0" d="M86.9,10.5c0,0.1,0,0.1,0,0.2L86.5,11c-0.1,0.1-0.1,0.1-0.2,0c-0.1-0.1-0.1-0.1,0-0.2
								l0.4-0.4C86.8,10.4,86.9,10.4,86.9,10.5z"/>
							<path id="Path_102344" class="st0" d="M87.7,9.7c0,0.1,0,0.1,0,0.2l-0.4,0.4c-0.1,0.1-0.1,0.1-0.2,0c-0.1-0.1-0.1-0.1,0-0.2
								l0,0l0.4-0.4C87.6,9.7,87.6,9.7,87.7,9.7z"/>
						</g>
					</g>
				</g>
			</g>
		</g>
	</g>
</g>
</svg>
